<?xml version="1.0" standalone="no"?>
<!DOCTYPE svg PUBLIC "-//W3C//DTD SVG 1.1//EN" "http://www.w3.org/Graphics/SVG/1.1/DTD/svg11.dtd">
<svg width="100%" height="100%" viewBox="0 0 49 34" version="1.1" xmlns="http://www.w3.org/2000/svg" xmlns:xlink="http://www.w3.org/1999/xlink" xml:space="preserve" style="fill-rule:evenodd;clip-rule:evenodd;stroke-linejoin:round;stroke-miterlimit:1.41421;">
    <g transform="matrix(1,0,0,1,-2808,-1633)">
        <g transform="matrix(0.5,0,0,0.5,0,0)">
            <g>
                <g transform="matrix(2,0,0,2,0,0)">
                    <path d="M2809,1666.28C2808.96,1666.28 2808.92,1666.28 2808.88,1666.27C2808.75,1666.25 2808.64,1666.21 2808.53,1666.14C2808.25,1665.97 2808.08,1665.64 2808.11,1665.31C2808.12,1665.23 2808.14,1665.14 2808.17,1665.07C2808.2,1664.99 2808.24,1664.92 2808.29,1664.85C2808.31,1664.82 2808.34,1664.79 2808.37,1664.76L2839.76,1633.37C2839.79,1633.34 2839.82,1633.31 2839.85,1633.29C2839.95,1633.21 2840.07,1633.16 2840.2,1633.13C2840.58,1633.05 2840.98,1633.23 2841.17,1633.58C2841.21,1633.65 2841.24,1633.73 2841.26,1633.81C2841.27,1633.89 2841.28,1633.98 2841.27,1634.06C2841.26,1634.23 2841.2,1634.4 2841.1,1634.53C2841.07,1634.57 2841.04,1634.6 2841.01,1634.63L2811.14,1664.5L2856.08,1664.5L2856.21,1664.51C2856.25,1664.52 2856.29,1664.52 2856.33,1664.54C2856.49,1664.58 2856.64,1664.68 2856.75,1664.81C2856.81,1664.87 2856.85,1664.94 2856.89,1665.02C2857.03,1665.33 2856.98,1665.71 2856.75,1665.97C2856.7,1666.04 2856.63,1666.09 2856.56,1666.14C2856.45,1666.2 2856.33,1666.25 2856.21,1666.27C2856.16,1666.28 2856.12,1666.28 2856.08,1666.28C2840.39,1666.28 2824.69,1666.28 2809,1666.28Z" style="fill:black;fill-rule:nonzero;"/>
                </g>
                <g transform="matrix(2.09254,0,0,2.09254,554.04,1183.83)">
                    <path d="M2435,1011L2420,1026L2441,1026C2441,1026 2444.73,1016.86 2435,1011Z" style="fill:black;"/>
                </g>
            </g>
        </g>
    </g>
</svg>
