<?xml version="1.0" encoding="iso-8859-1"?>
<!-- Generator: Adobe Illustrator 16.0.0, SVG Export Plug-In . SVG Version: 6.00 Build 0)  -->
<!DOCTYPE svg PUBLIC "-//W3C//DTD SVG 1.1//EN" "http://www.w3.org/Graphics/SVG/1.1/DTD/svg11.dtd">
<svg version="1.1" id="Layer_1" xmlns="http://www.w3.org/2000/svg" xmlns:xlink="http://www.w3.org/1999/xlink" x="0px" y="0px"
	 width="32px" height="32px" viewBox="0 0 32 32" style="enable-background:new 0 0 32 32;" xml:space="preserve">
<g id="Base_10_">
	<g>
		<path style="fill:#CCCCCC;" d="M30,0H2C0.896,0,0,0.896,0,2v28c0,1.104,0.896,2,2,2h28c1.104,0,2-0.896,2-2V2
			C32,0.896,31.104,0,30,0z"/>
	</g>
</g>
<g id="Container_10_">
	<g>
		<path style="fill:#FFFFFF;" d="M29,2H3C2.448,2,2,2.447,2,3v26c0,0.552,0.448,1,1,1h26c0.552,0,1-0.448,1-1V3
			C30,2.447,29.552,2,29,2z"/>
	</g>
</g>
<g id="Grid_10_">
	<g>
		<path style="fill-rule:evenodd;clip-rule:evenodd;fill:#CCCCCC;" d="M6,5C5.448,5,5,5.447,5,6c0,0.552,0.448,1,1,1s1-0.448,1-1
			C7,5.447,6.552,5,6,5z M10,5C9.448,5,9,5.447,9,6c0,0.552,0.448,1,1,1s1-0.448,1-1C11,5.447,10.552,5,10,5z M14,5
			c-0.552,0-1,0.447-1,1c0,0.552,0.448,1,1,1s1-0.448,1-1C15,5.447,14.552,5,14,5z M18,5c-0.552,0-1,0.447-1,1c0,0.552,0.448,1,1,1
			s1-0.448,1-1C19,5.447,18.552,5,18,5z M22,5c-0.552,0-1,0.447-1,1c0,0.552,0.448,1,1,1s1-0.448,1-1C23,5.447,22.552,5,22,5z M26,7
			c0.552,0,1-0.448,1-1c0-0.553-0.448-1-1-1s-1,0.447-1,1C25,6.552,25.448,7,26,7z M6,9c-0.552,0-1,0.447-1,1c0,0.552,0.448,1,1,1
			s1-0.448,1-1C7,9.447,6.552,9,6,9z M10,9c-0.552,0-1,0.447-1,1c0,0.552,0.448,1,1,1s1-0.448,1-1C11,9.447,10.552,9,10,9z M14,9
			c-0.552,0-1,0.447-1,1c0,0.552,0.448,1,1,1s1-0.448,1-1C15,9.447,14.552,9,14,9z M18,9c-0.552,0-1,0.447-1,1c0,0.552,0.448,1,1,1
			s1-0.448,1-1C19,9.447,18.552,9,18,9z M22,9c-0.552,0-1,0.447-1,1c0,0.552,0.448,1,1,1s1-0.448,1-1C23,9.447,22.552,9,22,9z M26,9
			c-0.552,0-1,0.447-1,1c0,0.552,0.448,1,1,1s1-0.448,1-1C27,9.447,26.552,9,26,9z M6,13c-0.552,0-1,0.447-1,1c0,0.552,0.448,1,1,1
			s1-0.448,1-1C7,13.447,6.552,13,6,13z M10,13c-0.552,0-1,0.447-1,1c0,0.552,0.448,1,1,1s1-0.448,1-1C11,13.447,10.552,13,10,13z
			 M14,13c-0.552,0-1,0.447-1,1c0,0.552,0.448,1,1,1s1-0.448,1-1C15,13.447,14.552,13,14,13z M18,13c-0.552,0-1,0.447-1,1
			c0,0.552,0.448,1,1,1s1-0.448,1-1C19,13.447,18.552,13,18,13z M22,13c-0.552,0-1,0.447-1,1c0,0.552,0.448,1,1,1s1-0.448,1-1
			C23,13.447,22.552,13,22,13z M26,13c-0.552,0-1,0.447-1,1c0,0.552,0.448,1,1,1s1-0.448,1-1C27,13.447,26.552,13,26,13z M6,17
			c-0.552,0-1,0.447-1,1c0,0.552,0.448,1,1,1s1-0.448,1-1C7,17.447,6.552,17,6,17z M10,17c-0.552,0-1,0.447-1,1c0,0.552,0.448,1,1,1
			s1-0.448,1-1C11,17.447,10.552,17,10,17z M14,17c-0.552,0-1,0.447-1,1c0,0.552,0.448,1,1,1s1-0.448,1-1C15,17.447,14.552,17,14,17
			z M18,17c-0.552,0-1,0.447-1,1c0,0.552,0.448,1,1,1s1-0.448,1-1C19,17.447,18.552,17,18,17z M22,17c-0.552,0-1,0.447-1,1
			c0,0.552,0.448,1,1,1s1-0.448,1-1C23,17.447,22.552,17,22,17z M26,17c-0.552,0-1,0.447-1,1c0,0.552,0.448,1,1,1s1-0.448,1-1
			C27,17.447,26.552,17,26,17z M6,21c-0.552,0-1,0.447-1,1c0,0.552,0.448,1,1,1s1-0.448,1-1C7,21.447,6.552,21,6,21z M10,21
			c-0.552,0-1,0.447-1,1c0,0.552,0.448,1,1,1s1-0.448,1-1C11,21.447,10.552,21,10,21z M14,21c-0.552,0-1,0.447-1,1
			c0,0.552,0.448,1,1,1s1-0.448,1-1C15,21.447,14.552,21,14,21z M18,21c-0.552,0-1,0.447-1,1c0,0.552,0.448,1,1,1s1-0.448,1-1
			C19,21.447,18.552,21,18,21z M22,21c-0.552,0-1,0.447-1,1c0,0.552,0.448,1,1,1s1-0.448,1-1C23,21.447,22.552,21,22,21z M26,21
			c-0.552,0-1,0.447-1,1c0,0.552,0.448,1,1,1s1-0.448,1-1C27,21.447,26.552,21,26,21z M6,25c-0.552,0-1,0.447-1,1
			c0,0.552,0.448,1,1,1s1-0.448,1-1C7,25.447,6.552,25,6,25z M10,25c-0.552,0-1,0.447-1,1c0,0.552,0.448,1,1,1s1-0.448,1-1
			C11,25.447,10.552,25,10,25z M14,25c-0.552,0-1,0.447-1,1c0,0.552,0.448,1,1,1s1-0.448,1-1C15,25.447,14.552,25,14,25z M18,25
			c-0.552,0-1,0.447-1,1c0,0.552,0.448,1,1,1s1-0.448,1-1C19,25.447,18.552,25,18,25z M22,25c-0.552,0-1,0.447-1,1
			c0,0.552,0.448,1,1,1s1-0.448,1-1C23,25.447,22.552,25,22,25z M26,25c-0.552,0-1,0.447-1,1c0,0.552,0.448,1,1,1s1-0.448,1-1
			C27,25.447,26.552,25,26,25z"/>
	</g>
</g>
<g>
</g>
<g>
</g>
<g>
</g>
<g>
</g>
<g>
</g>
<g>
</g>
<g>
</g>
<g>
</g>
<g>
</g>
<g>
</g>
<g>
</g>
<g>
</g>
<g>
</g>
<g>
</g>
<g>
</g>
</svg>
