<?xml version="1.0" standalone="no"?>
<!DOCTYPE svg PUBLIC "-//W3C//DTD SVG 1.1//EN" "http://www.w3.org/Graphics/SVG/1.1/DTD/svg11.dtd">
<svg width="100%" height="100%" viewBox="0 0 27 26" version="1.1" xmlns="http://www.w3.org/2000/svg" xmlns:xlink="http://www.w3.org/1999/xlink" xml:space="preserve" style="fill-rule:evenodd;clip-rule:evenodd;stroke-linejoin:round;stroke-miterlimit:1.41421;">
    <g transform="matrix(1,0,0,1,-2464,-1620)">
        <g transform="matrix(0.5,0,0,0.5,0,0)">
            <g transform="matrix(2,0,0,2,0,0)">
                <path d="M2466.32,1644.11L2488.55,1644.11L2488.55,1621.89L2466.32,1621.89C2466.32,1629.3 2466.32,1636.7 2466.32,1644.11ZM2465.44,1645.89C2465.32,1645.88 2465.21,1645.87 2465.1,1645.82C2464.85,1645.72 2464.66,1645.51 2464.59,1645.26C2464.56,1645.17 2464.55,1645.09 2464.55,1645L2464.55,1621C2464.55,1620.91 2464.56,1620.83 2464.59,1620.74C2464.66,1620.49 2464.85,1620.28 2465.1,1620.18C2465.21,1620.13 2465.32,1620.12 2465.44,1620.11L2489.44,1620.11C2489.52,1620.12 2489.61,1620.12 2489.69,1620.15C2489.95,1620.23 2490.16,1620.42 2490.26,1620.66C2490.3,1620.77 2490.32,1620.88 2490.32,1621L2490.32,1645C2490.32,1645.09 2490.31,1645.17 2490.29,1645.26C2490.21,1645.51 2490.02,1645.72 2489.78,1645.82C2489.66,1645.87 2489.55,1645.88 2489.44,1645.89C2481.44,1645.89 2473.44,1645.89 2465.44,1645.89Z" style="fill:black;fill-rule:nonzero;"/>
            </g>
        </g>
    </g>
</svg>
