<?xml version="1.0" standalone="no"?>
<!DOCTYPE svg PUBLIC "-//W3C//DTD SVG 1.1//EN" "http://www.w3.org/Graphics/SVG/1.1/DTD/svg11.dtd">
<svg width="100%" height="100%" viewBox="0 0 43 26" version="1.1" xmlns="http://www.w3.org/2000/svg" xmlns:xlink="http://www.w3.org/1999/xlink" xml:space="preserve" style="fill-rule:evenodd;clip-rule:evenodd;stroke-linejoin:round;stroke-miterlimit:1.41421;">
    <g transform="matrix(1,0,0,1,-2402,-1620)">
        <g transform="matrix(0.5,0,0,0.5,0,0)">
            <g transform="matrix(2,0,0,2,0,0)">
                <path d="M2404.58,1644.11L2443.11,1644.11L2443.11,1621.89L2404.58,1621.89C2404.58,1629.3 2404.58,1636.7 2404.58,1644.11ZM2403.69,1645.89C2403.59,1645.88 2403.56,1645.88 2403.46,1645.86C2403.2,1645.79 2402.97,1645.59 2402.87,1645.34C2402.84,1645.27 2402.82,1645.19 2402.81,1645.12C2402.8,1645.08 2402.8,1645.04 2402.8,1645L2402.8,1621C2402.81,1620.9 2402.81,1620.87 2402.83,1620.77C2402.9,1620.51 2403.1,1620.28 2403.35,1620.18C2403.42,1620.15 2403.5,1620.13 2403.58,1620.12C2403.61,1620.11 2403.65,1620.11 2403.69,1620.11L2444,1620.11C2444.1,1620.12 2444.13,1620.12 2444.23,1620.14C2444.49,1620.21 2444.72,1620.41 2444.82,1620.66C2444.85,1620.73 2444.87,1620.81 2444.88,1620.88C2444.89,1620.92 2444.89,1620.96 2444.89,1621L2444.89,1645C2444.88,1645.1 2444.89,1645.13 2444.86,1645.23C2444.79,1645.5 2444.59,1645.72 2444.34,1645.82C2444.27,1645.85 2444.19,1645.87 2444.12,1645.88C2444.08,1645.89 2444.04,1645.89 2444,1645.89C2430.56,1645.89 2417.13,1645.89 2403.69,1645.89Z" style="fill:black;fill-rule:nonzero;"/>
            </g>
        </g>
    </g>
</svg>
