<?xml version="1.0" standalone="no"?>
<!DOCTYPE svg PUBLIC "-//W3C//DTD SVG 1.1//EN" "http://www.w3.org/Graphics/SVG/1.1/DTD/svg11.dtd">
<svg width="100%" height="100%" viewBox="0 0 61 52" version="1.1" xmlns="http://www.w3.org/2000/svg" xmlns:xlink="http://www.w3.org/1999/xlink" xml:space="preserve" style="fill-rule:evenodd;clip-rule:evenodd;stroke-linejoin:round;stroke-miterlimit:1.41421;">
    <g transform="matrix(1,0,0,1,-2733,-2124)">
        <g id="Layer4" transform="matrix(0.0836122,0,0,0.0836122,2390.68,1941.45)">
            <clipPath id="_clip1">
                <path d="M4832,2176L4082,2176L4082,2823L4832,2823L4832,2176ZM4136.72,2713.26L4116.16,2713.26L4116.16,2748.23L4136.72,2748.23L4136.72,2713.26ZM4644.13,2679.45L4631.16,2663.49L4604.03,2685.56L4617,2701.51L4644.13,2679.45ZM4553.25,2644.01L4532.69,2644.01L4532.69,2678.98L4553.25,2678.98L4553.25,2644.01ZM4193.61,2636.2L4173.06,2636.2L4173.06,2671.17L4193.61,2671.17L4193.61,2636.2ZM4692.99,2637.1L4680.02,2621.15L4652.89,2643.22L4665.86,2659.17L4692.99,2637.1ZM4497.61,2593.47L4477.05,2593.47L4477.05,2628.45L4497.61,2628.45L4497.61,2593.47ZM4497.61,2541.66L4477.05,2541.66L4477.05,2576.63L4497.61,2576.63L4497.61,2541.66ZM4192.73,2502.14L4172.17,2502.14L4172.17,2537.11L4192.73,2537.11L4192.73,2502.14ZM4134.65,2481L4114.09,2481L4114.09,2515.97L4134.65,2515.97L4134.65,2481ZM4553.25,2441.62L4532.69,2441.62L4532.69,2473.76L4553.25,2473.76L4553.25,2441.62ZM4136.4,2402.56L4115.84,2402.56L4115.84,2437.53L4136.4,2437.53L4136.4,2402.56ZM4576.45,2335.13L4563.48,2319.18L4536.35,2341.25L4549.32,2357.2L4576.45,2335.13ZM4466.98,2327.39L4454.01,2311.44L4426.88,2333.51L4439.85,2349.46L4466.98,2327.39ZM4228.44,2324.42L4215.47,2308.47L4188.34,2330.53L4201.31,2346.48L4228.44,2324.42ZM4623.18,2294.8L4610.21,2278.85L4583.08,2300.91L4596.05,2316.86L4623.18,2294.8ZM4280.24,2282.78L4267.27,2266.84L4240.14,2288.9L4253.11,2304.85L4280.24,2282.78ZM4587.09,2237.69L4574.12,2221.74L4546.98,2243.81L4559.96,2259.76L4587.09,2237.69Z"/>
            </clipPath>
            <g clip-path="url(#_clip1)">
                <g>
                    <g transform="matrix(18.1519,0,0,18.1519,-70141.3,-5432.83)">
                        <path d="M4104.02,442.733L4094.44,442.733L4094.44,450.572L4105.57,450.572L4105.57,452.957L4091.52,452.957L4091.52,430.839L4105.42,430.839L4105.42,433.239L4094.44,433.239L4094.44,440.348L4104.02,440.348L4104.02,442.733Z" style="fill:none;stroke-width:0.66px;stroke:rgb(0,106,103);"/>
                    </g>
                    <g transform="matrix(18.1519,0,0,18.1519,-70100.8,-5432.83)">
                        <path d="M4112.14,450.572L4122.62,450.572L4122.62,452.957L4109.2,452.957L4109.2,430.839L4112.14,430.839L4112.14,450.572Z" style="fill:none;stroke-width:0.66px;stroke:rgb(0,106,103);"/>
                    </g>
                    <g transform="matrix(1.16179,0,0,1.16179,-665.827,1949.71)">
                        <path d="M4128,376.994L4313,230" style="fill:none;stroke-width:10.29px;stroke-linecap:round;stroke:rgb(0,106,103);"/>
                    </g>
                    <g transform="matrix(0.874532,0,0,0.874532,571.573,2230.76)">
                        <path d="M4128,376.994L4313,230" style="fill:none;stroke-width:13.68px;stroke-linecap:round;stroke:rgb(0,106,103);"/>
                    </g>
                    <g transform="matrix(1.00737,0,0,1.00737,386.234,2365.94)">
                        <path d="M4128,376.994L4313,230" style="fill:none;stroke-width:11.87px;stroke-linecap:round;stroke:rgb(0,106,103);"/>
                    </g>
                    <g transform="matrix(0.725989,0,0,0.725989,1184.76,2469.22)">
                        <path d="M4128,376.994L4313,230" style="fill:none;stroke-width:16.47px;stroke-linecap:round;stroke:rgb(0,106,103);"/>
                    </g>
                    <g transform="matrix(0.459621,0,0,0.459621,2485.24,2573.42)">
                        <path d="M4128,376.994L4313,230" style="fill:none;stroke-width:26.02px;stroke-linecap:round;stroke:rgb(0,106,103);"/>
                    </g>
                    <g transform="matrix(0.268521,0,0,0.268521,3274.1,2687.95)">
                        <path d="M4128,376.994L4313,230" style="fill:none;stroke-width:44.54px;stroke-linecap:round;stroke:rgb(0,106,103);"/>
                    </g>
                    <g transform="matrix(0.418515,0,0,0.418515,3004.79,2588.92)">
                        <path d="M4128,376.994L4313,230" style="fill:none;stroke-width:28.58px;stroke-linecap:round;stroke:rgb(0,106,103);"/>
                    </g>
                    <g transform="matrix(0.347431,0,0,0.347431,3298.05,2657.74)">
                        <path d="M4128,376.994L4313,230" style="fill:none;stroke-width:34.42px;stroke-linecap:round;stroke:rgb(0,106,103);"/>
                    </g>
                    <g transform="matrix(0.919662,0,0,0.919662,583.915,2085.19)">
                        <path d="M4128,376.994L4313,230" style="fill:none;stroke-width:13px;stroke-linecap:round;stroke:rgb(0,106,103);"/>
                    </g>
                    <g transform="matrix(0.732332,0,0,0.732332,1330.39,2329.73)">
                        <path d="M4128,376.994L4313,230" style="fill:none;stroke-width:16.33px;stroke-linecap:round;stroke:rgb(0,106,103);"/>
                    </g>
                    <g transform="matrix(1.25886,0,0,1.25886,-817.134,1913.12)">
                        <path d="M4128,376.994L4313,230" style="fill:none;stroke-width:9.5px;stroke-linecap:round;stroke:rgb(0,106,103);"/>
                    </g>
                    <g transform="matrix(0.724647,0,0,0.724647,1363.54,2287.49)">
                        <path d="M4128,376.994L4313,230" style="fill:none;stroke-width:16.5px;stroke-linecap:round;stroke:rgb(0,106,103);"/>
                    </g>
                    <g transform="matrix(1.24865,0,0,1.24865,-665.468,1916.97)">
                        <path d="M4128,376.994L4313,230" style="fill:none;stroke-width:9.58px;stroke-linecap:round;stroke:rgb(0,106,103);"/>
                    </g>
                    <g transform="matrix(1.06783,0,0,1.06783,133.868,1985.14)">
                        <path d="M4128,376.994L4313,230" style="fill:none;stroke-width:11.2px;stroke-linecap:round;stroke:rgb(0,106,103);"/>
                    </g>
                    <g transform="matrix(1,0,0,1,1,2004.43)">
                        <circle cx="4127" cy="384" r="10" style="fill:rgb(0,106,103);"/>
                    </g>
                    <g transform="matrix(1,0,0,1,250.844,2004.43)">
                        <circle cx="4127" cy="384" r="10" style="fill:rgb(0,106,103);"/>
                    </g>
                    <g transform="matrix(1,0,0,1,250.844,2044.13)">
                        <circle cx="4127" cy="384" r="10" style="fill:rgb(0,106,103);"/>
                    </g>
                    <g transform="matrix(1,0,0,1,55.0998,2049.07)">
                        <circle cx="4127" cy="384" r="10" style="fill:rgb(0,106,103);"/>
                    </g>
                    <g transform="matrix(1,0,0,1,55.0998,2175.85)">
                        <circle cx="4127" cy="384" r="10" style="fill:rgb(0,106,103);"/>
                    </g>
                    <g transform="matrix(1,0,0,1,228.211,2175.85)">
                        <circle cx="4127" cy="384" r="10" style="fill:rgb(0,106,103);"/>
                    </g>
                    <g transform="matrix(1,0,0,1,228.211,2216.3)">
                        <circle cx="4127" cy="384" r="10" style="fill:rgb(0,106,103);"/>
                    </g>
                    <g transform="matrix(1,0,0,1,56.5193,2357.62)">
                        <circle cx="4127" cy="384" r="10" style="fill:rgb(0,106,103);"/>
                    </g>
                    <g transform="matrix(1,0,0,1,253.571,2361.03)">
                        <circle cx="4127" cy="384" r="10" style="fill:rgb(0,106,103);"/>
                    </g>
                    <g transform="matrix(1,0,0,1,253.571,2403.14)">
                        <circle cx="4127" cy="384" r="10" style="fill:rgb(0,106,103);"/>
                    </g>
                    <g transform="matrix(1,0,0,1,363.683,2403.14)">
                        <circle cx="4127" cy="384" r="10" style="fill:rgb(0,106,103);"/>
                    </g>
                    <g transform="matrix(1,0,0,1,363.683,2002.1)">
                        <circle cx="4127" cy="384" r="10" style="fill:rgb(0,106,103);"/>
                    </g>
                    <g transform="matrix(1,0,0,1,413.937,2002.1)">
                        <circle cx="4127" cy="384" r="10" style="fill:rgb(0,106,103);"/>
                    </g>
                    <g transform="matrix(1,0,0,1,413.937,2360.17)">
                        <circle cx="4127" cy="384" r="10" style="fill:rgb(0,106,103);"/>
                    </g>
                    <g transform="matrix(1,0,0,1,605.277,2360.17)">
                        <circle cx="4127" cy="384" r="10" style="fill:rgb(0,106,103);"/>
                    </g>
                    <g transform="matrix(1,0,0,1,605.277,2403.34)">
                        <circle cx="4127" cy="384" r="10" style="fill:rgb(0,106,103);"/>
                    </g>
                    <g transform="matrix(1,0,0,1,2.43881,2403.14)">
                        <circle cx="4127" cy="384" r="10" style="fill:rgb(0,106,103);"/>
                    </g>
                </g>
            </g>
        </g>
    </g>
</svg>
