<?xml version="1.0" standalone="no"?>
<!DOCTYPE svg PUBLIC "-//W3C//DTD SVG 1.1//EN" "http://www.w3.org/Graphics/SVG/1.1/DTD/svg11.dtd">
<svg width="100%" height="100%" viewBox="0 0 66 64" version="1.1" xmlns="http://www.w3.org/2000/svg" xmlns:xlink="http://www.w3.org/1999/xlink" xml:space="preserve" style="fill-rule:evenodd;clip-rule:evenodd;stroke-linejoin:round;stroke-miterlimit:1.41421;">
    <g transform="matrix(1,0,0,1,-2186,-1602)">
        <g transform="matrix(0.5,0,0,0.5,0,0)">
            <g>
                <g transform="matrix(2,0,0,2,0,0)">
                    <path d="M2211.62,1665.39C2211.57,1665.38 2211.52,1665.38 2211.47,1665.37C2211.38,1665.36 2211.28,1665.32 2211.2,1665.28C2211.16,1665.25 2211.12,1665.22 2211.08,1665.19L2187.27,1646.19C2187.18,1646.11 2187.15,1646.1 2187.09,1645.99C2186.93,1645.76 2186.89,1645.47 2186.99,1645.21C2187.03,1645.09 2187.05,1645.07 2187.11,1644.97L2218.61,1602.97C2218.65,1602.93 2218.68,1602.89 2218.71,1602.86C2218.78,1602.79 2218.86,1602.74 2218.95,1602.69C2219.04,1602.65 2219.13,1602.63 2219.23,1602.62C2219.57,1602.58 2219.92,1602.75 2220.09,1603.05C2220.17,1603.18 2220.21,1603.32 2220.21,1603.47C2220.22,1603.51 2220.21,1603.56 2220.21,1603.61L2212.52,1664.61C2212.49,1664.74 2212.49,1664.77 2212.43,1664.89C2212.35,1665.06 2212.21,1665.21 2212.03,1665.29C2211.92,1665.35 2211.88,1665.35 2211.76,1665.38C2211.71,1665.38 2211.66,1665.39 2211.62,1665.39ZM2210.95,1662.82L2218.02,1606.72L2189.05,1645.34C2196.35,1651.17 2203.65,1656.99 2210.95,1662.82Z" style="fill:black;fill-rule:nonzero;"/>
                </g>
                <g transform="matrix(2,0,0,2,0,0)">
                    <path d="M2211.82,1665.39C2211.7,1665.38 2211.66,1665.38 2211.55,1665.34C2211.24,1665.24 2211.01,1664.97 2210.95,1664.65C2210.93,1664.53 2210.94,1664.5 2210.94,1664.38L2219.14,1603.38C2219.15,1603.33 2219.15,1603.29 2219.17,1603.24C2219.2,1603.15 2219.24,1603.06 2219.29,1602.98C2219.35,1602.9 2219.42,1602.83 2219.5,1602.78C2219.78,1602.58 2220.16,1602.56 2220.46,1602.73C2220.54,1602.78 2220.62,1602.84 2220.68,1602.91C2220.71,1602.95 2220.74,1602.99 2220.77,1603.03L2251.58,1652.03C2251.63,1652.13 2251.66,1652.16 2251.68,1652.28C2251.77,1652.59 2251.67,1652.92 2251.44,1653.15C2251.37,1653.21 2251.3,1653.26 2251.21,1653.3C2251.17,1653.32 2251.13,1653.33 2251.09,1653.35L2212.09,1665.35L2211.95,1665.38C2211.91,1665.38 2211.86,1665.39 2211.82,1665.39ZM2212.89,1663.24L2249.46,1651.99L2220.57,1606.05C2218.01,1625.12 2215.45,1644.18 2212.89,1663.24Z" style="fill:black;fill-rule:nonzero;"/>
                </g>
                <g transform="matrix(2,0,0,2,0,0)">
                    <path d="M2250.87,1653.39C2250.76,1653.38 2250.73,1653.39 2250.62,1653.36C2250.51,1653.34 2250.48,1653.32 2250.38,1653.27L2248.84,1652.38C2248.81,1652.36 2248.77,1652.34 2248.74,1652.31C2248.6,1652.21 2248.5,1652.06 2248.45,1651.9C2248.32,1651.53 2248.45,1651.11 2248.77,1650.89C2248.84,1650.84 2248.91,1650.8 2248.99,1650.77C2249.07,1650.74 2249.16,1650.73 2249.24,1650.72C2249.37,1650.72 2249.5,1650.74 2249.62,1650.79C2249.66,1650.8 2249.69,1650.82 2249.73,1650.84L2251.27,1651.73C2251.3,1651.75 2251.34,1651.78 2251.38,1651.8C2251.47,1651.88 2251.56,1651.98 2251.62,1652.09C2251.79,1652.44 2251.72,1652.87 2251.44,1653.14C2251.35,1653.23 2251.24,1653.3 2251.12,1653.34C2251.08,1653.35 2251.03,1653.36 2250.99,1653.37C2250.95,1653.38 2250.91,1653.38 2250.87,1653.39ZM2244.71,1649.83C2244.6,1649.83 2244.57,1649.84 2244.46,1649.81C2244.35,1649.78 2244.32,1649.77 2244.22,1649.72L2242.68,1648.83C2242.65,1648.8 2242.61,1648.78 2242.58,1648.76C2242.44,1648.65 2242.34,1648.51 2242.29,1648.35C2242.26,1648.27 2242.24,1648.18 2242.24,1648.1C2242.22,1647.71 2242.47,1647.35 2242.84,1647.22C2242.91,1647.19 2243,1647.17 2243.08,1647.17C2243.21,1647.16 2243.34,1647.19 2243.46,1647.23C2243.49,1647.25 2243.53,1647.27 2243.57,1647.29L2245.11,1648.18C2245.14,1648.2 2245.18,1648.22 2245.22,1648.25C2245.32,1648.33 2245.4,1648.43 2245.46,1648.54C2245.63,1648.88 2245.56,1649.32 2245.28,1649.59C2245.19,1649.68 2245.08,1649.75 2244.96,1649.79C2244.92,1649.8 2244.88,1649.81 2244.83,1649.82C2244.79,1649.82 2244.75,1649.83 2244.71,1649.83ZM2238.55,1646.28C2238.44,1646.28 2238.41,1646.28 2238.3,1646.26C2238.19,1646.23 2238.16,1646.21 2238.06,1646.16L2236.52,1645.27C2236.49,1645.25 2236.45,1645.23 2236.42,1645.2C2236.28,1645.1 2236.18,1644.96 2236.13,1644.8C2236.1,1644.72 2236.08,1644.63 2236.08,1644.55C2236.06,1644.16 2236.31,1643.79 2236.68,1643.66C2236.76,1643.64 2236.84,1643.62 2236.92,1643.62C2237.05,1643.61 2237.18,1643.63 2237.3,1643.68C2237.34,1643.69 2237.37,1643.72 2237.41,1643.74L2238.95,1644.62C2238.99,1644.65 2239.02,1644.67 2239.05,1644.69C2239.16,1644.77 2239.24,1644.87 2239.3,1644.99C2239.47,1645.33 2239.4,1645.77 2239.12,1646.04C2239.03,1646.12 2238.92,1646.19 2238.8,1646.23C2238.76,1646.25 2238.72,1646.26 2238.68,1646.27C2238.63,1646.27 2238.59,1646.28 2238.55,1646.28ZM2232.39,1642.73C2232.28,1642.72 2232.25,1642.73 2232.14,1642.7C2232.03,1642.68 2232,1642.66 2231.9,1642.61L2230.36,1641.72C2230.33,1641.7 2230.29,1641.68 2230.26,1641.65C2230.16,1641.57 2230.08,1641.47 2230.02,1641.36C2229.84,1641.01 2229.91,1640.58 2230.19,1640.31C2230.25,1640.25 2230.32,1640.2 2230.4,1640.16C2230.47,1640.12 2230.55,1640.09 2230.64,1640.08C2230.8,1640.05 2230.98,1640.06 2231.14,1640.13C2231.18,1640.14 2231.21,1640.16 2231.25,1640.18L2232.79,1641.07C2232.83,1641.09 2232.86,1641.11 2232.9,1641.14C2233,1641.22 2233.08,1641.32 2233.14,1641.43C2233.32,1641.78 2233.24,1642.21 2232.96,1642.48C2232.87,1642.57 2232.76,1642.64 2232.64,1642.68C2232.6,1642.69 2232.56,1642.7 2232.51,1642.71C2232.47,1642.72 2232.43,1642.72 2232.39,1642.73ZM2226.23,1639.17C2226.12,1639.17 2226.09,1639.18 2225.98,1639.15C2225.87,1639.12 2225.84,1639.11 2225.74,1639.06L2224.38,1638.27C2224.35,1638.25 2224.32,1638.23 2224.28,1638.21C2224.16,1638.11 2224.07,1637.99 2224.01,1637.85C2223.97,1637.77 2223.96,1637.71 2223.95,1637.62C2223.93,1637.55 2223.91,1637.38 2223.91,1637.29C2223.91,1637.12 2223.96,1636.96 2224.05,1636.81C2224.26,1636.49 2224.68,1636.33 2225.05,1636.44C2225.13,1636.47 2225.21,1636.5 2225.28,1636.55C2225.39,1636.62 2225.48,1636.71 2225.55,1636.82C2225.57,1636.85 2225.58,1636.89 2225.6,1636.92L2226.63,1637.52C2226.67,1637.54 2226.7,1637.56 2226.74,1637.59C2226.84,1637.66 2226.92,1637.77 2226.98,1637.88C2227.16,1638.23 2227.08,1638.66 2226.8,1638.93C2226.71,1639.02 2226.6,1639.08 2226.48,1639.13C2226.44,1639.14 2226.4,1639.15 2226.36,1639.16C2226.31,1639.16 2226.27,1639.17 2226.23,1639.17ZM2224.05,1632.9C2223.94,1632.9 2223.91,1632.9 2223.8,1632.87C2223.55,1632.8 2223.35,1632.62 2223.24,1632.38C2223.19,1632.28 2223.19,1632.25 2223.17,1632.14L2222.92,1630.38C2222.92,1630.34 2222.91,1630.3 2222.91,1630.25C2222.91,1630.13 2222.94,1630 2222.99,1629.88C2223.03,1629.81 2223.08,1629.74 2223.13,1629.67C2223.39,1629.38 2223.82,1629.29 2224.17,1629.45C2224.25,1629.48 2224.32,1629.53 2224.38,1629.59C2224.51,1629.7 2224.61,1629.84 2224.65,1630.01C2224.67,1630.05 2224.67,1630.09 2224.68,1630.13L2224.93,1631.89C2224.94,1632 2224.95,1632.03 2224.93,1632.14C2224.89,1632.44 2224.69,1632.7 2224.42,1632.83C2224.31,1632.87 2224.28,1632.87 2224.17,1632.9C2224.13,1632.9 2224.09,1632.9 2224.05,1632.9ZM2223.05,1625.86C2222.94,1625.86 2222.91,1625.86 2222.8,1625.83C2222.56,1625.75 2222.35,1625.58 2222.24,1625.34C2222.2,1625.24 2222.2,1625.21 2222.17,1625.1L2221.93,1623.34C2221.92,1623.3 2221.92,1623.26 2221.92,1623.21C2221.92,1623.04 2221.97,1622.88 2222.06,1622.73C2222.1,1622.66 2222.16,1622.6 2222.22,1622.54C2222.52,1622.29 2222.96,1622.26 2223.29,1622.47C2223.36,1622.51 2223.42,1622.57 2223.48,1622.63C2223.56,1622.73 2223.62,1622.84 2223.66,1622.97C2223.67,1623.01 2223.68,1623.05 2223.68,1623.09L2223.93,1624.85C2223.94,1624.96 2223.95,1624.99 2223.93,1625.1C2223.89,1625.4 2223.69,1625.66 2223.42,1625.78C2223.32,1625.83 2223.29,1625.83 2223.18,1625.86C2223.14,1625.86 2223.09,1625.86 2223.05,1625.86ZM2222.06,1618.82C2221.94,1618.81 2221.91,1618.82 2221.81,1618.79C2221.56,1618.71 2221.35,1618.53 2221.25,1618.3C2221.2,1618.2 2221.2,1618.17 2221.18,1618.06L2220.93,1616.3C2220.93,1616.26 2220.92,1616.21 2220.92,1616.17C2220.92,1616.04 2220.95,1615.92 2221,1615.8C2221.04,1615.73 2221.08,1615.65 2221.14,1615.59C2221.19,1615.53 2221.26,1615.47 2221.33,1615.42C2221.66,1615.21 2222.1,1615.25 2222.39,1615.5C2222.52,1615.61 2222.62,1615.76 2222.66,1615.92C2222.67,1615.97 2222.68,1616.01 2222.69,1616.05L2222.94,1617.81C2222.95,1617.92 2222.95,1617.95 2222.94,1618.06C2222.89,1618.36 2222.7,1618.62 2222.43,1618.74C2222.32,1618.79 2222.29,1618.79 2222.18,1618.81C2222.14,1618.82 2222.1,1618.82 2222.06,1618.82ZM2221.06,1611.78C2220.95,1611.77 2220.92,1611.78 2220.81,1611.75C2220.56,1611.67 2220.36,1611.49 2220.25,1611.26C2220.21,1611.16 2220.21,1611.13 2220.18,1611.02L2219.93,1609.26C2219.93,1609.22 2219.92,1609.17 2219.92,1609.13C2219.93,1609 2219.95,1608.88 2220.01,1608.76C2220.17,1608.41 2220.56,1608.2 2220.94,1608.25C2221.03,1608.27 2221.11,1608.29 2221.18,1608.33C2221.26,1608.36 2221.33,1608.41 2221.4,1608.46C2221.53,1608.57 2221.62,1608.72 2221.67,1608.88C2221.68,1608.92 2221.68,1608.97 2221.69,1609.01L2221.94,1610.77C2221.95,1610.88 2221.96,1610.91 2221.94,1611.02C2221.9,1611.32 2221.7,1611.58 2221.43,1611.7C2221.33,1611.75 2221.3,1611.75 2221.19,1611.77C2221.14,1611.78 2221.1,1611.78 2221.06,1611.78ZM2220.06,1604.74C2219.95,1604.73 2219.92,1604.74 2219.81,1604.7C2219.61,1604.64 2219.43,1604.51 2219.32,1604.33C2219.25,1604.22 2219.21,1604.1 2219.19,1603.98C2219.16,1603.79 2219.11,1603.57 2219.14,1603.37C2219.19,1603.03 2219.44,1602.74 2219.77,1602.65C2219.85,1602.62 2219.93,1602.61 2220.02,1602.61C2220.36,1602.61 2220.68,1602.82 2220.83,1603.13C2220.91,1603.31 2220.92,1603.54 2220.95,1603.73C2220.97,1603.9 2220.95,1604.07 2220.87,1604.22C2220.78,1604.42 2220.63,1604.57 2220.43,1604.66C2220.33,1604.71 2220.3,1604.71 2220.19,1604.73C2220.15,1604.74 2220.11,1604.74 2220.06,1604.74Z" style="fill:black;fill-rule:nonzero;"/>
                </g>
                <g transform="matrix(2,0,0,2,0,0)">
                    <path d="M2187.79,1646.39C2187.69,1646.38 2187.67,1646.38 2187.57,1646.35C2187.43,1646.31 2187.3,1646.23 2187.19,1646.12C2186.93,1645.85 2186.86,1645.43 2187.04,1645.09C2187.09,1644.99 2187.16,1644.9 2187.24,1644.83C2187.33,1644.76 2187.43,1644.7 2187.53,1644.66C2187.57,1644.65 2187.6,1644.64 2187.64,1644.63L2189.38,1644.26C2189.47,1644.24 2189.5,1644.23 2189.6,1644.24C2189.75,1644.24 2189.89,1644.29 2190.02,1644.36C2190.31,1644.54 2190.48,1644.88 2190.45,1645.21C2190.44,1645.33 2190.4,1645.43 2190.35,1645.53C2190.3,1645.63 2190.23,1645.72 2190.15,1645.8C2190.06,1645.87 2189.96,1645.93 2189.86,1645.96C2189.82,1645.98 2189.79,1645.98 2189.75,1645.99L2188.01,1646.37L2187.9,1646.38C2187.87,1646.39 2187.83,1646.39 2187.79,1646.39ZM2194.74,1644.88C2194.64,1644.88 2194.62,1644.88 2194.52,1644.85C2194.38,1644.81 2194.25,1644.73 2194.14,1644.62C2194.06,1644.54 2194,1644.45 2193.96,1644.34C2193.81,1643.99 2193.91,1643.58 2194.19,1643.33C2194.28,1643.25 2194.38,1643.2 2194.48,1643.16C2194.52,1643.15 2194.55,1643.14 2194.59,1643.13L2196.33,1642.75C2196.36,1642.75 2196.4,1642.74 2196.44,1642.74C2196.55,1642.73 2196.66,1642.74 2196.77,1642.77C2197.09,1642.87 2197.34,1643.15 2197.39,1643.49C2197.41,1643.6 2197.41,1643.71 2197.38,1643.82C2197.35,1643.93 2197.31,1644.03 2197.24,1644.13C2197.16,1644.25 2197.05,1644.35 2196.91,1644.42C2196.82,1644.46 2196.8,1644.46 2196.7,1644.49L2194.96,1644.87L2194.85,1644.88C2194.82,1644.88 2194.78,1644.88 2194.74,1644.88ZM2201.69,1643.38C2201.66,1643.38 2201.62,1643.38 2201.58,1643.37C2201.47,1643.35 2201.36,1643.31 2201.27,1643.26C2200.94,1643.06 2200.78,1642.66 2200.86,1642.29C2200.89,1642.18 2200.93,1642.08 2200.99,1641.99C2201.08,1641.87 2201.2,1641.77 2201.33,1641.7C2201.42,1641.65 2201.44,1641.65 2201.54,1641.63L2203.28,1641.25C2203.31,1641.24 2203.35,1641.24 2203.39,1641.23C2203.5,1641.22 2203.61,1641.24 2203.72,1641.27C2204.04,1641.36 2204.29,1641.65 2204.34,1641.99C2204.36,1642.1 2204.36,1642.21 2204.33,1642.32C2204.3,1642.43 2204.26,1642.53 2204.2,1642.62C2204.11,1642.75 2203.99,1642.85 2203.86,1642.91C2203.77,1642.96 2203.75,1642.96 2203.65,1642.99L2201.91,1643.36L2201.8,1643.38C2201.77,1643.38 2201.73,1643.38 2201.69,1643.38ZM2208.64,1641.88C2208.61,1641.88 2208.57,1641.88 2208.53,1641.87C2208.42,1641.85 2208.32,1641.81 2208.22,1641.75C2208.12,1641.7 2208.04,1641.62 2207.97,1641.53C2207.74,1641.23 2207.73,1640.8 2207.95,1640.49C2208.03,1640.36 2208.14,1640.26 2208.28,1640.2C2208.37,1640.15 2208.39,1640.15 2208.49,1640.12L2210.23,1639.75C2210.32,1639.73 2210.35,1639.72 2210.45,1639.73C2210.6,1639.73 2210.74,1639.78 2210.87,1639.85C2210.97,1639.91 2211.05,1639.99 2211.12,1640.08C2211.19,1640.16 2211.24,1640.27 2211.27,1640.37C2211.36,1640.7 2211.26,1641.06 2211,1641.29C2210.91,1641.36 2210.82,1641.42 2210.71,1641.45C2210.68,1641.47 2210.64,1641.48 2210.6,1641.49L2208.87,1641.86L2208.75,1641.88C2208.72,1641.88 2208.68,1641.88 2208.64,1641.88ZM2215.59,1640.38C2215.49,1640.37 2215.47,1640.37 2215.37,1640.34C2215.23,1640.3 2215.1,1640.22 2214.99,1640.11C2214.92,1640.03 2214.85,1639.94 2214.81,1639.84C2214.66,1639.49 2214.76,1639.07 2215.04,1638.82C2215.13,1638.75 2215.23,1638.69 2215.33,1638.65C2215.37,1638.64 2215.4,1638.63 2215.44,1638.62L2217.18,1638.24C2217.21,1638.24 2217.25,1638.23 2217.29,1638.23C2217.4,1638.22 2217.51,1638.23 2217.62,1638.26C2217.73,1638.29 2217.83,1638.35 2217.91,1638.41C2218.18,1638.62 2218.31,1638.98 2218.23,1639.31C2218.21,1639.42 2218.16,1639.53 2218.1,1639.62C2218.01,1639.74 2217.9,1639.84 2217.76,1639.91C2217.67,1639.95 2217.65,1639.95 2217.55,1639.98L2215.82,1640.36L2215.7,1640.37C2215.67,1640.38 2215.63,1640.38 2215.59,1640.38ZM2222.54,1638.87C2222.45,1638.86 2222.42,1638.87 2222.32,1638.84C2222.18,1638.8 2222.05,1638.72 2221.95,1638.61C2221.68,1638.34 2221.61,1637.91 2221.79,1637.58C2221.84,1637.48 2221.91,1637.39 2221.99,1637.32C2222.08,1637.24 2222.18,1637.18 2222.28,1637.15C2222.32,1637.13 2222.35,1637.13 2222.39,1637.12L2224.13,1636.74C2224.22,1636.73 2224.25,1636.72 2224.35,1636.72C2224.5,1636.73 2224.64,1636.77 2224.77,1636.85C2224.87,1636.91 2224.95,1636.98 2225.02,1637.07C2225.23,1637.34 2225.26,1637.72 2225.11,1638.02C2225.05,1638.12 2224.98,1638.21 2224.9,1638.28C2224.81,1638.35 2224.72,1638.41 2224.61,1638.45C2224.58,1638.46 2224.54,1638.47 2224.5,1638.48L2222.77,1638.86L2222.66,1638.87C2222.62,1638.87 2222.58,1638.87 2222.54,1638.87Z" style="fill:black;fill-rule:nonzero;"/>
                </g>
            </g>
        </g>
    </g>
</svg>
