<?xml version="1.0" standalone="no"?>
<!DOCTYPE svg PUBLIC "-//W3C//DTD SVG 1.1//EN" "http://www.w3.org/Graphics/SVG/1.1/DTD/svg11.dtd">
<svg width="100%" height="100%" viewBox="0 0 34 36" version="1.1" xmlns="http://www.w3.org/2000/svg" xmlns:xlink="http://www.w3.org/1999/xlink" xml:space="preserve" style="fill-rule:evenodd;clip-rule:evenodd;stroke-linejoin:round;stroke-miterlimit:1.41421;">
    <g transform="matrix(1,0,0,1,-2887,-1632)">
        <g transform="matrix(0.5,0,0,0.5,0,0)">
            <g>
                <g transform="matrix(2,0,0,2,0,0)">
                    <path d="M2889.04,1667.61C2888.99,1667.61 2888.95,1667.61 2888.91,1667.61C2888.73,1667.59 2888.56,1667.55 2888.41,1667.47C2888.29,1667.41 2888.18,1667.34 2888.08,1667.25C2887.8,1666.97 2887.64,1666.58 2887.67,1666.18C2887.68,1666.01 2887.73,1665.84 2887.81,1665.68C2887.83,1665.64 2887.85,1665.61 2887.87,1665.57L2908.15,1633.29C2908.17,1633.26 2908.2,1633.22 2908.22,1633.18C2908.33,1633.05 2908.47,1632.93 2908.62,1632.84C2908.73,1632.78 2908.85,1632.73 2908.98,1632.7C2909.11,1632.67 2909.24,1632.66 2909.37,1632.67C2909.77,1632.7 2910.14,1632.91 2910.37,1633.23C2910.47,1633.37 2910.54,1633.53 2910.58,1633.7C2910.64,1633.96 2910.62,1634.23 2910.52,1634.48C2910.48,1634.59 2910.46,1634.61 2910.41,1634.71L2890.13,1666.99C2890.06,1667.08 2890.05,1667.11 2889.97,1667.19C2889.82,1667.35 2889.63,1667.47 2889.42,1667.54C2889.31,1667.58 2889.28,1667.58 2889.17,1667.6C2889.12,1667.6 2889.08,1667.61 2889.04,1667.61Z" style="fill:black;fill-rule:nonzero;"/>
                </g>
                <g transform="matrix(2,0,0,2,0,0)">
                    <path d="M2899.18,1667.61C2899.13,1667.61 2899.09,1667.61 2899.05,1667.61C2898.87,1667.59 2898.7,1667.55 2898.54,1667.47C2898.19,1667.29 2897.93,1666.96 2897.84,1666.57C2897.81,1666.44 2897.8,1666.31 2897.81,1666.18C2897.82,1666.01 2897.87,1665.84 2897.95,1665.68C2897.97,1665.64 2897.99,1665.61 2898.01,1665.57L2918.29,1633.29C2918.36,1633.2 2918.37,1633.17 2918.45,1633.09C2918.63,1632.89 2918.87,1632.76 2919.12,1632.7C2919.29,1632.66 2919.47,1632.66 2919.64,1632.69C2919.77,1632.71 2919.9,1632.75 2920.01,1632.81C2920.13,1632.87 2920.24,1632.94 2920.33,1633.03C2920.62,1633.3 2920.78,1633.7 2920.75,1634.09C2920.74,1634.27 2920.69,1634.44 2920.61,1634.6C2920.59,1634.63 2920.57,1634.67 2920.55,1634.71L2900.27,1666.99C2900.2,1667.08 2900.19,1667.11 2900.11,1667.19C2899.96,1667.35 2899.77,1667.47 2899.56,1667.54C2899.45,1667.58 2899.42,1667.58 2899.31,1667.6C2899.26,1667.6 2899.22,1667.61 2899.18,1667.61Z" style="fill:black;fill-rule:nonzero;"/>
                </g>
            </g>
        </g>
    </g>
</svg>
