<?xml version="1.0" standalone="no"?>
<!DOCTYPE svg PUBLIC "-//W3C//DTD SVG 1.1//EN" "http://www.w3.org/Graphics/SVG/1.1/DTD/svg11.dtd">
<svg width="100%" height="100%" viewBox="0 0 27 26" version="1.1" xmlns="http://www.w3.org/2000/svg" xmlns:xlink="http://www.w3.org/1999/xlink" xml:space="preserve" style="fill-rule:evenodd;clip-rule:evenodd;stroke-linejoin:round;stroke-miterlimit:1.41421;">
    <g transform="matrix(1,0,0,1,-2548,-1620)">
        <g transform="matrix(0.5,0,0,0.5,0,0)">
            <g transform="matrix(2,0,0,2,0,0)">
                <path d="M2549.6,1645.89C2549.57,1645.89 2549.54,1645.89 2549.51,1645.88C2549.42,1645.88 2549.33,1645.85 2549.24,1645.81C2548.9,1645.66 2548.68,1645.3 2548.72,1644.93C2548.72,1644.84 2548.74,1644.74 2548.78,1644.66C2548.79,1644.63 2548.81,1644.6 2548.82,1644.58L2561.82,1620.58C2561.84,1620.55 2561.85,1620.53 2561.87,1620.5C2561.93,1620.4 2562.02,1620.32 2562.12,1620.25C2562.43,1620.06 2562.84,1620.07 2563.13,1620.29C2563.23,1620.36 2563.31,1620.45 2563.37,1620.55C2563.38,1620.58 2563.39,1620.6 2563.41,1620.63L2574.41,1644.63C2574.45,1644.74 2574.49,1644.85 2574.49,1644.97C2574.5,1645.34 2574.28,1645.68 2573.95,1645.82C2573.84,1645.87 2573.72,1645.88 2573.6,1645.89C2565.6,1645.89 2557.6,1645.89 2549.6,1645.89ZM2551.09,1644.11L2572.22,1644.11L2562.53,1622.99C2558.72,1630.03 2554.91,1637.07 2551.09,1644.11Z" style="fill:black;fill-rule:nonzero;"/>
            </g>
        </g>
    </g>
</svg>
