<?xml version="1.0" standalone="no"?>
<!DOCTYPE svg PUBLIC "-//W3C//DTD SVG 1.1//EN" "http://www.w3.org/Graphics/SVG/1.1/DTD/svg11.dtd">
<svg width="100%" height="100%" viewBox="0 0 41 25" version="1.1" xmlns="http://www.w3.org/2000/svg" xmlns:xlink="http://www.w3.org/1999/xlink" xml:space="preserve" style="fill-rule:evenodd;clip-rule:evenodd;stroke-linejoin:round;stroke-miterlimit:1.41421;">
    <g transform="matrix(1,0,0,1,-2939,-1642)">
        <g transform="matrix(0.5,0,0,0.5,0,0)">
            <g>
                <g transform="matrix(2,0,0,2,0,0)">
                    <path d="M2940,1666.28C2939.96,1666.28 2939.92,1666.28 2939.88,1666.27C2939.77,1666.26 2939.66,1666.22 2939.55,1666.16C2939.45,1666.1 2939.37,1666.02 2939.3,1665.93C2939.25,1665.87 2939.21,1665.8 2939.18,1665.73C2939.04,1665.4 2939.12,1665.01 2939.37,1664.76C2939.48,1664.65 2939.62,1664.57 2939.77,1664.53C2939.87,1664.5 2939.9,1664.51 2940,1664.5L2979,1664.5C2979.1,1664.51 2979.13,1664.5 2979.23,1664.53C2979.38,1664.57 2979.52,1664.65 2979.63,1664.76C2979.71,1664.84 2979.78,1664.94 2979.82,1665.05C2979.85,1665.12 2979.87,1665.2 2979.88,1665.27C2979.93,1665.63 2979.75,1665.98 2979.44,1666.16C2979.34,1666.22 2979.23,1666.26 2979.12,1666.27C2979.08,1666.28 2979.04,1666.28 2979,1666.28C2966,1666.28 2953,1666.28 2940,1666.28Z" style="fill:black;fill-rule:nonzero;"/>
                </g>
                <g transform="matrix(2,0,0,2,0,0)">
                    <path d="M2959.5,1666.28C2959.38,1666.27 2959.27,1666.26 2959.16,1666.21C2958.92,1666.11 2958.73,1665.9 2958.65,1665.65C2958.62,1665.56 2958.62,1665.48 2958.61,1665.39L2958.61,1643C2958.62,1642.92 2958.61,1642.9 2958.63,1642.83C2958.66,1642.65 2958.75,1642.5 2958.87,1642.37C2958.93,1642.31 2959,1642.26 2959.08,1642.22C2959.39,1642.05 2959.79,1642.09 2960.06,1642.31C2960.15,1642.39 2960.23,1642.48 2960.28,1642.58C2960.34,1642.68 2960.37,1642.8 2960.39,1642.91C2960.39,1642.94 2960.39,1642.97 2960.39,1643L2960.39,1665.39C2960.39,1665.48 2960.38,1665.56 2960.35,1665.65C2960.27,1665.9 2960.08,1666.11 2959.84,1666.21C2959.76,1666.24 2959.68,1666.26 2959.59,1666.27C2959.56,1666.28 2959.53,1666.28 2959.5,1666.28Z" style="fill:black;fill-rule:nonzero;"/>
                </g>
                <g transform="matrix(2,0,0,2,0,0)">
                    <path d="M2960.39,1664.5L2966.81,1664.5L2966.81,1658.08L2960.39,1658.08C2960.39,1660.22 2960.39,1662.36 2960.39,1664.5ZM2959.5,1666.28C2959.41,1666.28 2959.32,1666.26 2959.24,1666.24C2958.99,1666.16 2958.79,1665.98 2958.69,1665.75C2958.64,1665.65 2958.62,1665.55 2958.61,1665.44C2958.53,1662.69 2958.61,1659.94 2958.61,1657.19C2958.61,1657.1 2958.62,1657.02 2958.65,1656.93C2958.73,1656.69 2958.91,1656.49 2959.14,1656.38C2959.24,1656.34 2959.34,1656.32 2959.45,1656.31C2962.19,1656.22 2964.95,1656.31 2967.69,1656.31C2967.78,1656.31 2967.87,1656.32 2967.96,1656.35C2968.2,1656.42 2968.4,1656.6 2968.51,1656.83C2968.55,1656.93 2968.57,1657.03 2968.58,1657.14C2968.66,1659.89 2968.58,1662.64 2968.58,1665.39C2968.58,1665.48 2968.57,1665.57 2968.54,1665.65C2968.47,1665.89 2968.29,1666.1 2968.06,1666.2C2967.96,1666.24 2967.86,1666.27 2967.75,1666.28C2965,1666.36 2962.25,1666.28 2959.5,1666.28Z" style="fill:black;fill-rule:nonzero;"/>
                </g>
            </g>
        </g>
    </g>
</svg>
